HIERARCHY
ROOT mixamorig:Hips
{
	OFFSET -0.000000 103.991470 2.076077 
	CHANNELS 6 Xposition Yposition Zposition Xrotation Yrotation Zrotation
	JOINT mixamorig:Neck
	{
		OFFSET 0.000010 46.036713 -4.758868 
		CHANNELS 6 Xposition Yposition Zposition Xrotation Yrotation Zrotation
		End Site
		{
			OFFSET 0.000000 13.794479 0.000000 
		}
	}
	JOINT mixamorig:LeftShoulder
	{
		OFFSET 4.570455 40.311035 -4.870688 
		CHANNELS 6 Xposition Yposition Zposition Xrotation Yrotation Zrotation
		JOINT mixamorig:LeftForeArm
		{
			OFFSET 38.433891 -0.524674 -2.232082 
			CHANNELS 6 Xposition Yposition Zposition Xrotation Yrotation Zrotation
			JOINT mixamorig:LeftHand
			{
				OFFSET 28.328835 -0.000015 0.000038 
				CHANNELS 6 Xposition Yposition Zposition Xrotation Yrotation Zrotation
			}
		}
	JOINT mixamorig:RightShoulder
	{
		OFFSET -4.569961 40.311234 -4.870717 
		CHANNELS 6 Xposition Yposition Zposition Xrotation Yrotation Zrotation
		JOINT mixamorig:RightForeArm
		{
			OFFSET -38.434364 -0.524842 -2.232087 
			CHANNELS 6 Xposition Yposition Zposition Xrotation Yrotation Zrotation
			JOINT mixamorig:RightHand
			{
				OFFSET -28.328835 0.000000 0.000056 
				CHANNELS 6 Xposition Yposition Zposition Xrotation Yrotation Zrotation
			}
		}
	JOINT mixamorig:LeftUpLeg
	{
		OFFSET 8.207790 3.429870 -1.468034 
		CHANNELS 6 Xposition Yposition Zposition Xrotation Yrotation Zrotation
		JOINT mixamorig:LeftLeg
		{
			OFFSET -0.000001 -44.370472 0.284643 
			CHANNELS 6 Xposition Yposition Zposition Xrotation Yrotation Zrotation
			JOINT mixamorig:LeftFoot
			{
				OFFSET 0.000001 -44.427872 -2.982191 
				CHANNELS 6 Xposition Yposition Zposition Xrotation Yrotation Zrotation
			}
		}
		JOINT mixamorig:RightUpLeg
		{
			OFFSET -8.207796 -6.751663 -1.599559 
			CHANNELS 6 Xposition Yposition Zposition Xrotation Yrotation Zrotation
			JOINT mixamorig:RightLeg
			{
				OFFSET 0.000000 -44.370537 0.286156 
				CHANNELS 6 Xposition Yposition Zposition Xrotation Yrotation Zrotation
				JOINT mixamorig:RightFoot
				{
					OFFSET 0.000001 -44.427731 -2.983789 
					CHANNELS 6 Xposition Yposition Zposition Xrotation Yrotation Zrotation
					JOINT mixamorig:RightToeBase
					{
						OFFSET -0.000002 -8.728668 10.710562 
						CHANNELS 6 Xposition Yposition Zposition Xrotation Yrotation Zrotation
						JOINT mixamorig:RightToe_End
						{
							OFFSET -0.000002 -0.000676 9.278120 
							CHANNELS 6 Xposition Yposition Zposition Xrotation Yrotation Zrotation
							End Site
							{
								OFFSET 0.000000 9.278120 0.000000 
							}
						}
					}
				}
			}
		}
	}
}
MOTION
Frames: 9
Frame Time: 0.033333
21.022512 -20.843237 -32.552742 -16.354755 89.990120 54.980286 0.000008 10.181611 0.131530 -33.406395 -34.111977 -22.164467 -0.000002 9.617872 1.685007 -26.378948 -29.702682 -31.601418 10.592389 -0.524582 -2.232108 -0.000462 -67.558861 -0.000488 28.328840 -0.000000 0.000031 11.607332 0.893608 37.455261 2.466139 -1.575040 2.682412 -32.921841 29.906364 36.956985 -10.592840 -0.524804 -2.232100 0.000057 102.912575 -0.000075 -28.328852 0.000010 0.000059 9.593940 -0.707139 -18.362551 -8.076694 -0.488452 -3.805995 -4.043511 2.025849 7.812921 -0.000000 -44.370461 0.284655 57.405567 0.343552 -4.891873 0.000003 -44.427872 -2.982193 -33.362686 1.460242 -3.789611 -0.000004 -8.728670 10.710561 -22.182909 0.192892 -24.585266 -0.000000 -44.370537 0.286158 68.815529 -10.264089 1.505901 -0.000000 -44.427727 -2.983788 -10.251791 -4.622556 5.553668 -0.000002 -8.728668 10.710559 -3.949482 0.000001 -0.000005 -0.000000 -0.000676 9.278120 -0.000000 -0.000001 -0.000000 
21.797287 -19.131004 -31.312672 -37.324532 99.236763 70.138817 0.000012 10.181597 0.131527 -32.465267 -41.010647 -23.032917 -0.000003 9.617910 1.685011 -25.943129 -30.243744 -31.778751 10.592371 -0.524569 -2.232121 -0.000413 -65.264435 -0.000469 28.328827 -0.000004 0.000032 11.591199 0.260197 35.742596 2.466122 -1.575042 2.682410 -30.717352 25.226034 23.410912 -10.592848 -0.524787 -2.232093 0.000549 99.742470 -0.000532 -28.328836 0.000008 0.000055 11.040604 0.619675 -21.221693 -8.076676 -0.488448 -3.806006 -7.207062 -1.023844 9.473559 0.000002 -44.370464 0.284645 53.744801 -4.834342 -3.222443 -0.000002 -44.427872 -2.982192 -30.761919 1.223180 -2.689280 0.000001 -8.728670 10.710560 -19.059998 -0.943974 -23.662830 0.000003 -44.370533 0.286158 54.054977 -10.292246 0.994326 -0.000001 -44.427723 -2.983787 -10.688181 -4.907791 7.029915 -0.000003 -8.728666 10.710562 -4.753401 0.000026 -0.000011 -0.000002 -0.000677 9.278120 -0.000000 0.000001 -0.000001 
22.895849 -17.353701 -29.662308 -74.695259 103.854965 100.588928 0.000007 10.181600 0.131528 -29.862827 -46.795929 -22.452610 0.000002 9.617867 1.685010 -23.805592 -30.284126 -30.928234 10.592378 -0.524579 -2.232116 -0.000400 -63.325195 -0.000472 28.328835 -0.000015 0.000028 12.048052 -0.298320 34.265118 2.466140 -1.575057 2.682403 -26.403408 20.295696 11.580215 -10.592842 -0.524772 -2.232102 -0.000024 93.345268 -0.000007 -28.328823 -0.000008 0.000058 12.051247 2.092615 -26.138641 -8.076679 -0.488451 -3.806015 -9.441784 -4.548677 10.723747 0.000003 -44.370476 0.284647 48.986435 -8.423638 -2.462919 0.000004 -44.427872 -2.982192 -27.693052 0.165516 -2.881078 -0.000001 -8.728670 10.710559 -13.801382 -1.966039 -22.367397 0.000002 -44.370537 0.286150 36.973400 -10.202055 -1.528465 0.000002 -44.427731 -2.983788 -10.421363 -7.170007 6.222299 -0.000002 -8.728669 10.710561 -4.568522 0.000003 0.000001 -0.000001 -0.000678 9.278114 0.000002 0.000000 0.000001 
24.296200 -15.863443 -27.499512 -120.745438 101.515610 139.776260 0.000007 10.181593 0.131518 -26.640076 -51.875801 -20.352177 0.000000 9.617877 1.685005 -19.294996 -29.413284 -27.821054 10.592378 -0.524594 -2.232113 -0.000393 -63.613358 -0.000419 28.328823 -0.000014 0.000035 10.973091 -0.531140 35.289207 2.466128 -1.575032 2.682412 -21.347984 16.066866 2.425756 -10.592844 -0.524784 -2.232096 0.000204 82.315308 -0.000217 -28.328835 0.000006 0.000058 13.085430 4.133911 -31.571562 -8.076650 -0.488454 -3.805997 -11.000257 -7.341571 11.256439 -0.000003 -44.370472 0.284646 43.754807 -9.537989 -1.354466 -0.000001 -44.427872 -2.982188 -24.658533 -2.667685 -5.033323 0.000002 -8.728672 10.710562 -8.074620 -1.804656 -21.030655 0.000000 -44.370533 0.286159 21.688360 -9.872506 -4.463102 0.000001 -44.427734 -2.983785 -9.680740 -12.578922 5.124113 -0.000002 -8.728668 10.710567 -4.462278 0.000006 0.000004 -0.000003 -0.000678 9.278120 0.000000 0.000000 -0.000003 
25.996561 -14.936201 -24.784990 -147.941696 94.722359 160.741165 0.000003 10.181583 0.131524 -22.944277 -56.401825 -17.163397 0.000002 9.617891 1.685003 -13.326134 -26.740929 -23.117231 10.592372 -0.524562 -2.232111 -0.000463 -66.677872 -0.000511 28.328815 -0.000026 0.000038 9.151156 -0.549357 39.714542 2.466140 -1.575053 2.682415 -16.524630 13.664827 -3.626831 -10.592849 -0.524812 -2.232094 0.000020 65.496384 -0.000023 -28.328838 -0.000008 0.000054 15.001816 7.062886 -34.269127 -8.076678 -0.488461 -3.806014 -12.383060 -8.368367 11.353163 -0.000001 -44.370468 0.284641 38.823803 -9.439880 0.950087 0.000007 -44.427876 -2.982189 -22.282827 -7.179970 -8.760443 0.000001 -8.728671 10.710559 -4.803717 -0.786960 -20.333069 -0.000001 -44.370533 0.286157 13.635713 -8.897660 -6.185963 -0.000000 -44.427731 -2.983788 -6.658895 -19.212296 9.200174 -0.000003 -8.728670 10.710571 -4.930770 -0.000014 -0.000007 -0.000003 -0.000674 9.278116 -0.000001 -0.000001 0.000000 
27.912167 -14.501433 -21.802347 -159.550888 87.828224 167.266342 0.000007 10.181598 0.131525 -18.398788 -60.487637 -13.320637 0.000002 9.617871 1.685000 -8.086396 -22.399620 -18.677137 10.592379 -0.524583 -2.232111 -0.000595 -71.301132 -0.000631 28.328852 -0.000008 0.000041 9.051160 -0.753568 46.251022 2.466136 -1.575063 2.682411 -13.142860 13.309586 -6.700065 -10.592843 -0.524795 -2.232101 -0.000002 43.850067 0.000004 -28.328835 -0.000020 0.000055 17.589176 9.131417 -31.206305 -8.076683 -0.488469 -3.806011 -13.057341 -7.790917 11.570416 -0.000002 -44.370472 0.284646 34.008549 -9.227816 3.837343 -0.000001 -44.427872 -2.982190 -20.699947 -12.130897 -13.236668 0.000003 -8.728670 10.710560 -4.150148 -1.578424 -19.894554 0.000003 -44.370544 0.286159 11.571852 -8.080987 -6.883390 0.000002 -44.427734 -2.983789 -1.907315 -21.958624 15.444967 -0.000003 -8.728669 10.710559 -5.191744 -0.000030 -0.000008 -0.000002 -0.000677 9.278112 -0.000000 0.000000 -0.000000 
29.909452 -14.535064 -18.671076 -162.480804 82.797089 167.129272 0.000010 10.181588 0.131524 -13.355696 -64.291069 -9.343609 -0.000001 9.617892 1.685006 -5.494660 -17.225349 -15.713672 10.592370 -0.524586 -2.232113 -0.000681 -75.448288 -0.000703 28.328863 -0.000014 0.000035 11.337777 -0.738139 52.153599 2.466141 -1.575061 2.682414 -12.514826 13.469125 -7.663498 -10.592838 -0.524785 -2.232096 0.000002 22.578777 -0.000005 -28.328833 0.000031 0.000056 20.929756 7.196477 -21.823561 -8.076683 -0.488467 -3.806007 -12.421037 -6.912026 12.282505 -0.000004 -44.370472 0.284646 29.489468 -9.308394 6.057439 -0.000002 -44.427872 -2.982189 -19.817963 -15.881030 -17.550262 0.000005 -8.728671 10.710560 -5.582797 -4.604882 -19.670824 0.000003 -44.370537 0.286152 14.223532 -7.402377 -7.065230 0.000006 -44.427734 -2.983788 2.201457 -19.330557 21.111855 -0.000003 -8.728670 10.710561 -4.252477 0.000017 -0.000004 -0.000003 -0.000678 9.278130 0.000001 0.000000 -0.000001 
31.903294 -15.097624 -15.399555 -160.021973 79.599655 164.216278 0.000008 10.181602 0.131521 -9.205959 -67.788193 -5.970671 0.000005 9.617878 1.685009 -6.292225 -11.643688 -14.299180 10.592371 -0.524584 -2.232118 -0.000919 -77.656174 -0.000945 28.328827 -0.000015 0.000044 14.231227 -0.120658 55.174133 2.466142 -1.575040 2.682407 -14.315472 11.955662 -7.768394 -10.592852 -0.524758 -2.232096 0.000000 7.938882 0.000002 -28.328827 0.000006 0.000060 26.439304 1.435343 -9.134990 -8.076673 -0.488463 -3.806011 -10.856193 -6.708394 13.554411 0.000002 -44.370464 0.284645 26.101072 -9.463276 7.163884 0.000005 -44.427876 -2.982193 -19.480043 -17.807095 -21.266701 -0.000001 -8.728669 10.710560 -8.040524 -7.204483 -20.096769 0.000001 -44.370533 0.286154 21.606340 -7.557652 -5.760830 0.000004 -44.427727 -2.983789 1.186590 -15.113349 24.182449 -0.000002 -8.728669 10.710565 -2.422616 0.000026 -0.000000 0.000001 -0.000676 9.278122 -0.000000 0.000000 -0.000000 
33.889458 -16.179537 -12.137931 -155.137878 77.094498 160.884308 0.000011 10.181597 0.131522 -7.140501 -70.658295 -3.739419 0.000006 9.617867 1.685006 -9.936613 -6.315153 -14.192182 10.592371 -0.524579 -2.232122 -0.001015 -77.843239 -0.001034 28.328808 -0.000001 0.000046 15.678049 0.725678 54.868286 2.466134 -1.575047 2.682417 -16.728210 8.321111 -7.534922 -10.592842 -0.524795 -2.232101 -0.000004 1.636801 -0.000001 -28.328844 -0.000021 0.000057 31.024847 -4.609927 0.370240 -8.076658 -0.488445 -3.806009 -9.416097 -6.740086 15.403267 0.000002 -44.370461 0.284648 24.266100 -9.551263 8.027954 0.000004 -44.427872 -2.982193 -19.726303 -18.996359 -24.879564 -0.000007 -8.728670 10.710564 -10.443744 -7.642054 -21.139917 -0.000000 -44.370525 0.286146 32.805351 -8.990289 -2.091240 0.000002 -44.427731 -2.983793 -7.257144 -12.939162 22.362404 -0.000002 -8.728670 10.710562 -1.068453 -0.000011 0.000002 -0.000000 -0.000676 9.278122 0.000000 -0.000000 -0.000000 
